<svg width="400" height="400" viewBox="0 0 400 400" xmlns="http://www.w3.org/2000/svg">
  <rect width="400" height="400" fill="#000" />
  <circle cx="50" cy="50" r="1" fill="#fff" />
  <circle cx="100" cy="30" r="0.8" fill="#fff" />
  <circle cx="150" cy="70" r="1.2" fill="#fff" />
  <circle cx="200" cy="40" r="0.7" fill="#fff" />
  <circle cx="250" cy="90" r="1" fill="#fff" />
  <circle cx="300" cy="60" r="0.9" fill="#fff" />
  <circle cx="350" cy="20" r="1.1" fill="#fff" />
  <circle cx="30" cy="120" r="0.8" fill="#fff" />
  <circle cx="80" cy="150" r="1" fill="#fff" />
  <circle cx="130" cy="110" r="0.7" fill="#fff" />
  <circle cx="180" cy="170" r="1.2" fill="#fff" />
  <circle cx="230" cy="130" r="0.9" fill="#fff" />
  <circle cx="280" cy="180" r="1" fill="#fff" />
  <circle cx="330" cy="140" r="0.8" fill="#fff" />
  <circle cx="20" cy="210" r="1.1" fill="#fff" />
  <circle cx="70" cy="240" r="0.9" fill="#fff" />
  <circle cx="120" cy="200" r="0.7" fill="#fff" />
  <circle cx="170" cy="250" r="1" fill="#fff" />
  <circle cx="220" cy="220" r="0.8" fill="#fff" />
  <circle cx="270" cy="260" r="1.2" fill="#fff" />
  <circle cx="320" cy="230" r="0.9" fill="#fff" />
  <circle cx="370" cy="270" r="0.7" fill="#fff" />
  <circle cx="40" cy="300" r="1" fill="#fff" />
  <circle cx="90" cy="330" r="0.8" fill="#fff" />
  <circle cx="140" cy="290" r="1.1" fill="#fff" />
  <circle cx="190" cy="340" r="0.9" fill="#fff" />
  <circle cx="240" cy="310" r="0.7" fill="#fff" />
  <circle cx="290" cy="350" r="1" fill="#fff" />
  <circle cx="340" cy="320" r="0.8" fill="#fff" />
  <circle cx="60" cy="380" r="1.2" fill="#fff" />
  <circle cx="110" cy  r="0.8" fill="#fff" />
  <circle cx="60" cy="380" r="1.2" fill="#fff" />
  <circle cx="110" cy="350" r="0.9" fill="#fff" />
  <circle cx="160" cy="390" r="0.7" fill="#fff" />
  <circle cx="210" cy="370" r="1" fill="#fff" />
  <circle cx="260" cy="390" r="0.8" fill="#fff" />
  <circle cx="310" cy="380" r="1.1" fill="#fff" />
  <circle cx="360" cy="390" r="0.9" fill="#fff" />
</svg>

